<svg width="15" height="9" viewBox="0 0 15 9" fill="none" xmlns="http://www.w3.org/2000/svg">
<path d="M14.4423 1.94254L8.19229 8.19254C8.13425 8.25065 8.06531 8.29675 7.98944 8.3282C7.91357 8.35965 7.83224 8.37584 7.7501 8.37584C7.66797 8.37584 7.58664 8.35965 7.51077 8.3282C7.43489 8.29675 7.36596 8.25065 7.30792 8.19254L1.05792 1.94254C0.94064 1.82526 0.874756 1.6662 0.874756 1.50035C0.874756 1.3345 0.94064 1.17544 1.05792 1.05816C1.17519 0.940884 1.33425 0.875 1.5001 0.875C1.66596 0.875 1.82502 0.940884 1.94229 1.05816L7.7501 6.86675L13.5579 1.05816C13.616 1.00009 13.6849 0.954028 13.7608 0.922601C13.8367 0.891175 13.918 0.875 14.0001 0.875C14.0822 0.875 14.1635 0.891175 14.2394 0.922601C14.3153 0.954028 14.3842 1.00009 14.4423 1.05816C14.5004 1.11623 14.5464 1.18517 14.5778 1.26104C14.6093 1.33691 14.6255 1.41823 14.6255 1.50035C14.6255 1.58247 14.6093 1.66379 14.5778 1.73966C14.5464 1.81553 14.5004 1.88447 14.4423 1.94254Z" fill="#11151D"/>
</svg>
