<svg width="19" height="18" viewBox="0 0 19 18" fill="none" xmlns="http://www.w3.org/2000/svg">
<path d="M7.75 15.875C7.75 16.1222 7.67669 16.3639 7.53934 16.5695C7.40199 16.775 7.20676 16.9352 6.97835 17.0299C6.74995 17.1245 6.49861 17.1492 6.25614 17.101C6.01366 17.0527 5.79093 16.9337 5.61612 16.7589C5.4413 16.5841 5.32225 16.3613 5.27402 16.1189C5.22579 15.8764 5.25054 15.6251 5.34515 15.3966C5.43976 15.1682 5.59998 14.973 5.80554 14.8357C6.0111 14.6983 6.25277 14.625 6.5 14.625C6.83152 14.625 7.14946 14.7567 7.38388 14.9911C7.6183 15.2255 7.75 15.5435 7.75 15.875ZM14.625 14.625C14.3778 14.625 14.1361 14.6983 13.9305 14.8357C13.725 14.973 13.5648 15.1682 13.4701 15.3966C13.3755 15.6251 13.3508 15.8764 13.399 16.1189C13.4472 16.3613 13.5663 16.5841 13.7411 16.7589C13.9159 16.9337 14.1387 17.0527 14.3811 17.101C14.6236 17.1492 14.8749 17.1245 15.1034 17.0299C15.3318 16.9352 15.527 16.775 15.6643 16.5695C15.8017 16.3639 15.875 16.1222 15.875 15.875C15.875 15.5435 15.7433 15.2255 15.5089 14.9911C15.2745 14.7567 14.9565 14.625 14.625 14.625ZM18.3477 4.80859L16.1187 12.0516C16.002 12.4355 15.7646 12.7716 15.4418 13.01C15.1189 13.2484 14.7279 13.3764 14.3266 13.375H6.81797C6.41092 13.3735 6.01531 13.2401 5.6904 12.9949C5.36548 12.7497 5.12874 12.4059 5.01562 12.0148L2.18906 2.125H0.875C0.70924 2.125 0.550269 2.05915 0.433058 1.94194C0.315848 1.82473 0.25 1.66576 0.25 1.5C0.25 1.33424 0.315848 1.17527 0.433058 1.05806C0.550269 0.940848 0.70924 0.875 0.875 0.875H2.18906C2.46048 0.8759 2.7243 0.964678 2.94104 1.12805C3.15778 1.29141 3.31579 1.52058 3.39141 1.78125L4.025 4H17.75C17.8478 3.99996 17.9443 4.02288 18.0316 4.06691C18.1189 4.11094 18.1947 4.17485 18.2528 4.25351C18.311 4.33216 18.3498 4.42336 18.3663 4.51977C18.3828 4.61618 18.3764 4.7151 18.3477 4.80859ZM16.9039 5.25H4.38203L6.21719 11.6719C6.25452 11.8024 6.33335 11.9172 6.44174 11.999C6.55014 12.0807 6.6822 12.125 6.81797 12.125H14.3266C14.4603 12.125 14.5905 12.0822 14.6981 12.0027C14.8057 11.9233 14.8849 11.8114 14.9242 11.6836L16.9039 5.25Z" fill="#11151D"/>
</svg>
