<svg width="17" height="19" viewBox="0 0 17 19" fill="none" xmlns="http://www.w3.org/2000/svg">
<path d="M14.0227 3.27031C13.275 2.51514 12.3857 1.91486 11.4058 1.50383C10.4258 1.09281 9.37438 0.879121 8.31172 0.875H8.25C6.09512 0.875 4.02849 1.73102 2.50476 3.25476C0.981024 4.77849 0.125 6.84512 0.125 9V13.375C0.125 13.8723 0.322544 14.3492 0.674175 14.7008C1.02581 15.0525 1.50272 15.25 2 15.25H3.25C3.74728 15.25 4.2242 15.0525 4.57583 14.7008C4.92746 14.3492 5.125 13.8723 5.125 13.375V10.25C5.125 9.75272 4.92746 9.27581 4.57583 8.92417C4.2242 8.57254 3.74728 8.375 3.25 8.375H1.40313C1.52366 7.07182 2.01315 5.83 2.81424 4.79508C3.61532 3.76016 4.69481 2.97502 5.92617 2.53169C7.15753 2.08836 8.48975 2.0052 9.76669 2.29196C11.0436 2.57872 12.2124 3.22352 13.1359 4.15078C14.2648 5.28539 14.9591 6.78052 15.0977 8.375H13.25C12.7527 8.375 12.2758 8.57254 11.9242 8.92417C11.5725 9.27581 11.375 9.75272 11.375 10.25V13.375C11.375 13.8723 11.5725 14.3492 11.9242 14.7008C12.2758 15.0525 12.7527 15.25 13.25 15.25H15.125C15.125 15.7473 14.9275 16.2242 14.5758 16.5758C14.2242 16.9275 13.7473 17.125 13.25 17.125H8.875C8.70924 17.125 8.55027 17.1908 8.43306 17.3081C8.31585 17.4253 8.25 17.5842 8.25 17.75C8.25 17.9158 8.31585 18.0747 8.43306 18.1919C8.55027 18.3092 8.70924 18.375 8.875 18.375H13.25C14.0788 18.375 14.8737 18.0458 15.4597 17.4597C16.0458 16.8737 16.375 16.0788 16.375 15.25V9C16.3791 7.93717 16.1734 6.88398 15.7697 5.90077C15.3661 4.91757 14.7724 4.02368 14.0227 3.27031ZM3.25 9.625C3.41576 9.625 3.57473 9.69085 3.69194 9.80806C3.80915 9.92527 3.875 10.0842 3.875 10.25V13.375C3.875 13.5408 3.80915 13.6997 3.69194 13.8169C3.57473 13.9342 3.41576 14 3.25 14H2C1.83424 14 1.67527 13.9342 1.55806 13.8169C1.44085 13.6997 1.375 13.5408 1.375 13.375V9.625H3.25ZM13.25 14C13.0842 14 12.9253 13.9342 12.8081 13.8169C12.6908 13.6997 12.625 13.5408 12.625 13.375V10.25C12.625 10.0842 12.6908 9.92527 12.8081 9.80806C12.9253 9.69085 13.0842 9.625 13.25 9.625H15.125V14H13.25Z" fill="#11151D"/>
</svg>
