<svg width="17" height="18" viewBox="0 0 17 18" fill="none" xmlns="http://www.w3.org/2000/svg">
<path d="M8.25 0.875C6.64303 0.875 5.07214 1.35152 3.736 2.24431C2.39985 3.1371 1.35844 4.40605 0.743482 5.8907C0.12852 7.37535 -0.0323817 9.00901 0.281123 10.5851C0.594628 12.1612 1.36846 13.6089 2.50476 14.7452C3.64106 15.8815 5.0888 16.6554 6.6649 16.9689C8.24099 17.2824 9.87466 17.1215 11.3593 16.5065C12.844 15.8916 14.1129 14.8502 15.0057 13.514C15.8985 12.1779 16.375 10.607 16.375 9C16.3727 6.84581 15.516 4.78051 13.9927 3.25727C12.4695 1.73403 10.4042 0.877275 8.25 0.875ZM8.25 15.875C6.89026 15.875 5.56105 15.4718 4.43046 14.7164C3.29987 13.9609 2.41868 12.8872 1.89833 11.6309C1.37798 10.3747 1.24183 8.99237 1.5071 7.65875C1.77238 6.32513 2.42716 5.10013 3.38864 4.13864C4.35013 3.17716 5.57514 2.52237 6.90876 2.2571C8.24238 1.99183 9.62471 2.12798 10.881 2.64833C12.1372 3.16868 13.2109 4.04987 13.9664 5.18045C14.7218 6.31104 15.125 7.64025 15.125 9C15.1229 10.8227 14.3979 12.5702 13.1091 13.8591C11.8202 15.1479 10.0727 15.8729 8.25 15.875ZM9.5 12.75C9.5 12.9158 9.43416 13.0747 9.31695 13.1919C9.19974 13.3092 9.04076 13.375 8.875 13.375C8.54348 13.375 8.22554 13.2433 7.99112 13.0089C7.7567 12.7745 7.625 12.4565 7.625 12.125V9C7.45924 9 7.30027 8.93415 7.18306 8.81694C7.06585 8.69973 7 8.54076 7 8.375C7 8.20924 7.06585 8.05027 7.18306 7.93306C7.30027 7.81585 7.45924 7.75 7.625 7.75C7.95652 7.75 8.27447 7.8817 8.50889 8.11612C8.74331 8.35054 8.875 8.66848 8.875 9V12.125C9.04076 12.125 9.19974 12.1908 9.31695 12.3081C9.43416 12.4253 9.5 12.5842 9.5 12.75ZM7 5.5625C7 5.37708 7.05499 5.19582 7.158 5.04165C7.26101 4.88748 7.40743 4.76732 7.57874 4.69636C7.75004 4.62541 7.93854 4.60684 8.1204 4.64301C8.30226 4.67919 8.4693 4.76848 8.60042 4.89959C8.73153 5.0307 8.82082 5.19775 8.85699 5.3796C8.89316 5.56146 8.8746 5.74996 8.80364 5.92127C8.73268 6.09257 8.61252 6.23899 8.45835 6.342C8.30418 6.44502 8.12292 6.5 7.9375 6.5C7.68886 6.5 7.45041 6.40123 7.27459 6.22541C7.09878 6.0496 7 5.81114 7 5.5625Z" fill="#11151D"/>
</svg>
