<svg width="17" height="18" viewBox="0 0 17 18" fill="none" xmlns="http://www.w3.org/2000/svg">
<path d="M16.1921 16.0575L12.2804 12.1466C13.4142 10.7854 13.9795 9.03953 13.8589 7.27214C13.7382 5.50475 12.9408 3.85192 11.6325 2.65748C10.3243 1.46304 8.60591 0.818951 6.83486 0.859201C5.06382 0.899451 3.37647 1.62094 2.12383 2.87358C0.871185 4.12622 0.149695 5.81357 0.109445 7.58462C0.069195 9.35566 0.713284 11.074 1.90772 12.3823C3.10217 13.6906 4.75499 14.488 6.52238 14.6086C8.28977 14.7293 10.0356 14.1639 11.3968 13.0302L15.3077 16.9419C15.3658 16.9999 15.4348 17.046 15.5106 17.0774C15.5865 17.1089 15.6678 17.125 15.7499 17.125C15.8321 17.125 15.9134 17.1089 15.9892 17.0774C16.0651 17.046 16.1341 16.9999 16.1921 16.9419C16.2502 16.8838 16.2963 16.8149 16.3277 16.739C16.3591 16.6631 16.3753 16.5818 16.3753 16.4997C16.3753 16.4176 16.3591 16.3363 16.3277 16.2604C16.2963 16.1845 16.2502 16.1156 16.1921 16.0575ZM1.37493 7.74969C1.37493 6.63717 1.70483 5.54963 2.32292 4.62461C2.941 3.69958 3.81951 2.97861 4.84734 2.55287C5.87517 2.12712 7.00617 2.01573 8.09732 2.23277C9.18846 2.44981 10.1907 2.98554 10.9774 3.77221C11.7641 4.55888 12.2998 5.56116 12.5169 6.65231C12.7339 7.74345 12.6225 8.87445 12.1968 9.90228C11.771 10.9301 11.05 11.8086 10.125 12.4267C9.19999 13.0448 8.11245 13.3747 6.99993 13.3747C5.5086 13.373 4.07882 12.7799 3.02429 11.7253C1.96975 10.6708 1.37659 9.24102 1.37493 7.74969Z" fill="#11151D"/>
</svg>
